<mxfile host="app.diagrams.net" modified="2023-07-15T21:05:44.994Z" agent="Mozilla/5.0 (Windows NT 10.0; Win64; x64) AppleWebKit/537.36 (KHTML, like Gecko) Chrome/114.0.0.0 Safari/537.36" version="21.6.2" etag="2mHkkcZVjiVvvx5DKItW" type="github">
  <diagram name="Page-1" id="f9AwiXiwHsYy5lJzwfkc">
    <mxGraphModel>
      <root>
        <mxCell id="0" />
        <mxCell id="1" parent="0" />
      </root>
    </mxGraphModel>
  </diagram>
</mxfile>
